<?xml version="1.0" standalone="no"?>
<!DOCTYPE svg PUBLIC "-//W3C//DTD SVG 20010904//EN"
 "http://www.w3.org/TR/2001/REC-SVG-20010904/DTD/svg10.dtd">
<svg version="1.0" xmlns="http://www.w3.org/2000/svg"
 width="688.000000pt" height="688.000000pt" viewBox="0 0 688.000000 688.000000"
 preserveAspectRatio="xMidYMid meet">
<metadata>
Created by potrace 1.14, written by Peter Selinger 2001-2017
</metadata>
<g transform="translate(0.000000,688.000000) scale(0.100000,-0.100000)"
fill="#000000" stroke="none">
<path d="M2446 5402 c23 -36 57 -66 129 -112 33 -22 65 -44 72 -50 7 -5 19
-10 27 -10 8 0 17 -4 21 -9 8 -14 101 -57 175 -81 36 -12 71 -26 78 -32 6 -6
12 -8 12 -4 0 6 91 -47 118 -69 46 -37 109 -108 138 -158 44 -74 43 -93 -1
-43 -19 21 -35 36 -35 33 0 -2 -17 11 -37 29 -20 19 -43 34 -51 34 -7 0 -11 3
-9 8 3 4 -17 18 -44 31 -27 14 -49 29 -49 33 0 4 -6 8 -14 8 -8 0 -30 9 -48
19 -18 10 -62 29 -98 41 -36 12 -72 24 -80 27 -17 6 -65 15 -92 16 -10 1 -18
4 -18 7 0 3 -8 6 -17 6 -10 1 -47 4 -83 9 -36 4 -78 9 -95 11 -16 2 -147 6
-290 9 -143 3 -295 7 -338 8 l-79 3 6 -30 c19 -94 120 -239 192 -276 16 -8 37
-21 47 -29 9 -8 17 -11 17 -6 0 4 7 2 15 -5 8 -7 15 -10 15 -6 0 3 11 1 26 -4
35 -14 111 -23 289 -36 84 -5 116 -9 140 -13 10 -3 -54 -28 -89 -36 -12 -2
-39 -9 -61 -14 -22 -5 -53 -13 -70 -16 -16 -4 -115 -8 -218 -10 -104 -2 -190
-5 -193 -8 -7 -6 27 -76 51 -107 83 -103 145 -134 270 -133 92 1 112 3 225 29
91 22 101 24 135 28 17 2 42 9 58 15 15 6 27 8 27 5 0 -4 7 -1 15 6 12 10 15
10 15 -3 0 -8 -6 -17 -12 -20 -7 -3 -43 -28 -80 -56 -38 -27 -68 -48 -68 -46
0 3 -8 -3 -19 -14 -10 -10 -25 -21 -32 -23 -11 -4 -11 -7 1 -20 34 -33 70 -47
138 -52 23 -1 44 -5 47 -8 6 -6 -26 -71 -37 -76 -5 -2 -8 -12 -8 -22 0 -10 -4
-20 -8 -22 -8 -3 -106 -214 -142 -308 -20 -51 -61 -172 -66 -195 -1 -5 -7 -28
-13 -50 -5 -22 -13 -57 -17 -79 -3 -21 -8 -48 -11 -60 -3 -11 -7 -80 -9 -152
-2 -141 14 -232 58 -317 l20 -41 17 35 c19 38 71 129 83 144 5 6 31 42 59 80
60 81 55 76 158 180 96 97 117 115 206 176 39 27 75 52 81 56 33 25 264 143
264 136 0 -3 7 0 15 7 8 7 15 10 15 6 0 -4 11 1 25 10 14 9 25 13 25 9 0 -4 6
-3 13 2 10 8 76 34 97 38 3 1 32 9 65 19 33 10 67 20 75 21 8 2 16 4 18 5 1 2
5 3 10 4 17 5 119 27 142 31 14 3 36 7 50 10 48 10 75 15 110 21 19 3 47 7 63
10 15 2 27 1 27 -3 0 -10 -66 -53 -80 -53 -5 0 -10 -4 -10 -8 0 -5 -12 -15
-27 -23 -16 -8 -30 -16 -33 -19 -3 -3 -34 -25 -70 -49 -69 -47 -208 -149 -225
-166 -23 -22 -67 -85 -60 -85 4 0 2 -6 -4 -13 -21 -26 -20 -84 4 -177 3 -14 8
-34 9 -45 2 -11 9 -42 16 -70 6 -27 13 -57 15 -66 15 -75 94 -307 106 -315 4
-2 6 -11 2 -19 -3 -8 -1 -15 5 -15 9 0 25 -37 23 -52 -1 -5 2 -8 7 -8 4 0 13
-12 19 -27 7 -16 24 -40 38 -55 14 -16 23 -28 20 -28 -6 0 4 -11 65 -78 16
-18 30 -35 30 -38 0 -3 10 -15 23 -27 12 -12 34 -36 49 -54 23 -28 28 -30 45
-18 13 9 18 23 17 42 -3 35 -12 100 -18 133 -3 14 -8 43 -11 65 -3 22 -8 54
-11 72 l-6 32 93 -4 c52 -3 151 -7 221 -10 70 -2 130 -5 135 -6 40 -7 51 32
52 186 0 196 2 229 17 273 19 55 59 97 127 132 50 25 62 43 46 65 -4 6 -8 13
-8 18 -1 4 -1 8 -2 10 -1 5 -10 43 -14 62 -2 11 -6 31 -10 45 -3 14 -8 36 -11
49 -3 14 -8 29 -11 34 -3 5 -8 26 -10 46 -3 20 -9 44 -14 53 -5 9 -9 28 -9 42
0 14 -4 27 -8 30 -4 2 -9 19 -10 36 -1 18 -6 40 -11 49 -8 14 -22 80 -18 82 1
0 31 2 67 5 97 7 115 11 113 20 -1 5 -4 29 -8 54 -4 24 -9 48 -11 52 -3 4 -7
17 -10 28 -10 46 -13 57 -30 95 -10 22 -17 43 -16 47 1 3 -5 12 -13 18 -8 7
-15 21 -15 31 0 11 -3 19 -8 19 -4 0 -16 17 -27 37 -19 37 -37 61 -62 88 -7 8
-13 16 -13 19 0 6 -104 110 -141 141 -96 81 -273 171 -379 192 -43 8 -55 11
-55 13 0 3 -70 11 -117 13 -27 1 -48 6 -48 10 0 4 -7 4 -16 -1 -11 -6 -34 -5
-63 3 -91 24 -136 59 -194 148 -48 74 -173 198 -236 234 -25 15 -48 30 -51 33
-3 3 -25 12 -50 20 -25 7 -49 17 -55 20 -9 6 -83 23 -150 35 -16 2 -41 7 -55
10 -13 2 -40 7 -60 9 -68 9 -145 19 -170 22 -48 5 -140 20 -178 28 -24 5 -24
5 -6 -22z"/>
<path d="M5555 5130 c3 -11 8 -30 11 -42 2 -13 6 -34 9 -48 17 -75 26 -180 30
-350 1 -79 7 -146 12 -147 5 -2 9 7 10 19 1 13 7 24 13 26 5 2 10 7 10 12 0 5
5 21 12 37 6 15 12 30 13 33 1 3 8 19 15 35 8 17 15 35 16 40 1 6 3 12 4 15 6
12 7 50 1 50 -4 0 -7 8 -8 19 -1 10 -12 45 -26 77 -33 82 -40 98 -42 104 -7
25 -71 140 -78 140 -5 0 -6 -9 -2 -20z"/>
<path d="M1266 5068 c-45 -98 -78 -179 -85 -210 -1 -4 -8 -22 -16 -40 -12 -31
-11 -39 19 -113 36 -89 75 -175 79 -175 1 0 3 51 3 113 1 114 8 232 20 322 4
28 7 62 8 78 1 15 4 27 7 27 4 0 9 16 11 35 6 55 -10 42 -46 -37z"/>
<path d="M1066 4738 c5 -93 13 -193 18 -238 17 -128 1 -102 139 -225 15 -14
31 -25 36 -25 5 0 11 -3 13 -7 2 -5 15 -19 30 -32 33 -29 32 -12 -5 54 -25 44
-68 132 -71 145 -1 3 -7 14 -13 25 -11 19 -89 205 -91 215 -2 10 -15 46 -33
89 -10 24 -17 47 -14 51 3 5 1 11 -4 14 -6 4 -8 -23 -5 -66z"/>
<path d="M5785 4753 c-4 -21 -11 -44 -17 -50 -6 -7 -8 -13 -4 -13 4 0 0 -13
-8 -29 -9 -16 -12 -31 -9 -35 4 -3 1 -6 -5 -6 -7 0 -12 -6 -12 -12 0 -21 -50
-136 -122 -277 -37 -74 -66 -136 -65 -137 2 -2 15 7 29 19 15 12 35 29 45 37
10 8 46 37 78 64 33 27 63 52 67 55 14 12 32 146 43 334 6 89 -7 120 -20 50z"/>
<path d="M5545 4551 c-3 -5 -2 -12 3 -15 5 -3 9 1 9 9 0 17 -3 19 -12 6z"/>
<path d="M5549 4518 c-1 -3 -5 -42 -12 -120 -2 -21 -1 -38 3 -38 4 0 8 21 9
48 1 26 3 62 5 80 2 17 2 32 0 32 -2 0 -4 -1 -5 -2z"/>
<path d="M1318 4465 c2 -14 6 -25 8 -25 2 0 4 11 4 25 0 14 -4 25 -9 25 -4 0
-6 -11 -3 -25z"/>
<path d="M1325 4388 c2 -23 7 -65 10 -93 3 -27 7 -70 10 -95 3 -25 8 -56 11
-70 8 -38 17 -93 18 -115 1 -11 4 -22 8 -25 4 -4 9 -23 10 -43 2 -20 5 -37 8
-37 3 0 7 -13 8 -30 1 -16 0 -30 -2 -30 -2 0 -21 24 -42 53 -21 28 -42 54 -46
55 -5 2 -8 10 -8 18 0 8 -4 14 -10 14 -5 0 -10 7 -10 15 0 8 -4 15 -8 15 -5 0
-15 12 -23 28 -8 15 -21 35 -30 45 -9 9 -22 30 -30 45 -8 15 -17 29 -20 32 -4
3 -18 25 -31 50 -14 25 -33 61 -44 80 -10 19 -22 37 -26 38 -5 2 -8 12 -8 23
0 10 -4 19 -10 19 -5 0 -10 7 -10 15 0 8 -5 15 -10 15 -7 0 -7 -6 0 -20 6 -11
9 -20 7 -20 -5 0 22 -112 52 -220 12 -41 24 -86 27 -100 3 -14 11 -32 17 -40
12 -15 72 -60 81 -60 2 0 32 -18 65 -40 33 -22 64 -40 70 -40 5 0 11 -5 13
-10 2 -6 13 -12 26 -13 12 0 22 -4 23 -7 8 -51 12 -66 22 -72 6 -4 8 -10 5
-14 -4 -3 -1 -22 7 -40 8 -19 11 -34 8 -34 -3 0 -1 -6 5 -12 6 -7 11 -17 11
-23 3 -32 83 -236 139 -355 19 -41 35 -77 35 -80 -1 -3 8 -17 18 -32 10 -14
19 -30 19 -35 0 -4 10 -24 22 -43 12 -19 23 -41 24 -47 1 -7 9 -20 18 -29 9
-8 16 -22 16 -30 0 -8 5 -14 10 -14 6 0 10 -4 10 -9 0 -12 82 -145 92 -149 5
-2 8 -8 8 -14 0 -6 11 -26 25 -44 14 -19 26 -37 27 -41 1 -5 12 -19 25 -33 13
-14 23 -30 23 -37 0 -6 3 -13 8 -15 4 -1 27 -30 52 -63 58 -79 62 -84 83 -103
9 -9 17 -22 17 -29 0 -7 5 -13 10 -13 6 0 15 -11 22 -25 6 -13 15 -22 19 -19
5 3 9 1 9 -5 0 -5 10 -21 23 -35 12 -14 42 -48 67 -78 48 -56 357 -367 430
-433 25 -22 74 -65 110 -95 36 -30 67 -57 70 -60 3 -3 30 -25 60 -50 30 -25
60 -49 67 -55 6 -5 26 -21 44 -35 18 -14 38 -31 45 -37 7 -7 15 -13 18 -13 6
0 36 -24 61 -48 8 -6 18 -12 24 -12 6 0 11 -4 11 -8 0 -4 12 -15 28 -24 15 -9
40 -28 57 -42 29 -25 29 -26 10 -40 -11 -9 -23 -16 -27 -16 -4 0 -33 -17 -65
-39 -74 -49 -159 -103 -200 -127 -18 -10 -33 -22 -33 -27 0 -4 4 -5 10 -2 5 3
10 2 10 -2 0 -9 57 -33 78 -33 14 0 175 100 209 130 13 11 23 17 23 14 0 -6
57 33 79 54 10 10 16 10 27 1 8 -6 14 -8 14 -4 0 5 9 -2 20 -15 11 -13 20 -19
20 -14 0 5 4 4 8 -1 4 -6 27 -24 52 -40 25 -17 50 -33 55 -38 37 -28 138 -87
150 -87 9 0 36 10 61 22 40 18 44 22 27 31 -28 15 -197 120 -203 127 -3 3 -22
14 -42 24 -21 11 -38 23 -38 28 0 4 -6 8 -14 8 -7 0 -19 6 -25 14 -9 10 -2 19
31 42 24 16 45 32 48 35 3 3 32 25 65 50 33 24 71 54 85 67 14 12 28 22 32 22
5 0 16 8 26 18 10 9 38 33 62 52 23 19 54 46 66 59 13 13 24 21 24 17 0 -3 18
11 39 32 46 43 67 61 101 85 13 9 21 17 16 17 -5 0 4 10 20 22 57 45 252 236
361 354 59 64 142 160 164 189 13 17 29 35 35 40 6 6 43 53 82 105 39 52 80
105 91 118 11 12 18 22 15 22 -7 0 49 74 59 78 4 2 7 8 7 13 0 6 18 37 40 69
22 32 40 64 40 69 0 6 5 11 10 11 6 0 10 7 10 15 0 8 4 15 9 15 5 0 12 11 15
25 4 14 11 23 17 20 5 -4 8 -3 7 2 -3 9 31 82 42 93 8 8 68 134 68 144 0 5 4
12 9 15 11 8 37 63 35 74 -1 4 3 7 10 7 6 0 9 3 5 6 -3 4 2 23 13 44 11 21 16
40 13 44 -4 3 -2 6 4 6 6 0 17 20 24 45 7 25 17 45 21 45 4 0 7 5 5 11 -1 6 8
13 19 15 12 2 52 17 90 34 107 48 118 54 126 65 4 5 8 6 8 2 0 -17 62 36 71
62 6 14 10 28 9 30 -1 2 2 7 7 10 11 8 37 65 94 205 37 89 44 114 29 101 -11
-10 -20 -24 -20 -32 0 -7 -7 -16 -15 -19 -8 -4 -15 -12 -15 -19 0 -7 -7 -15
-15 -19 -8 -3 -15 -10 -15 -15 0 -6 -11 -22 -25 -37 -14 -15 -36 -41 -48 -56
-67 -89 -278 -309 -289 -302 -5 4 -5 10 1 17 5 7 9 14 9 17 -1 3 13 49 30 102
18 53 32 104 32 112 0 9 4 16 9 16 5 0 7 9 4 20 -3 11 -1 20 4 20 5 0 10 10
10 23 1 21 10 62 13 62 1 0 3 9 4 20 2 11 6 34 10 50 14 62 17 81 21 115 2 19
6 46 9 60 11 53 14 110 5 110 -5 0 -8 -10 -8 -22 1 -13 -2 -34 -5 -48 -8 -37
-15 -70 -21 -113 -18 -128 -99 -399 -171 -574 -25 -59 -46 -112 -47 -118 -1
-5 -4 -12 -7 -15 -3 -3 -36 -68 -75 -145 -104 -210 -240 -424 -407 -640 -19
-24 -74 -90 -90 -107 -10 -10 -18 -20 -18 -23 0 -3 -8 -13 -17 -23 -10 -10
-47 -51 -83 -92 -81 -92 -294 -306 -384 -385 -38 -33 -84 -75 -102 -93 -19
-17 -37 -32 -39 -32 -3 0 -13 -8 -23 -18 -10 -9 -37 -33 -61 -52 -23 -19 -53
-43 -64 -54 -12 -10 -47 -37 -77 -60 -30 -22 -60 -46 -67 -52 -6 -6 -58 -44
-115 -85 -57 -40 -105 -76 -108 -79 -3 -3 -27 -20 -54 -38 l-49 -34 -28 21
c-16 12 -32 21 -38 21 -5 0 -11 3 -13 8 -1 4 -34 30 -73 57 -38 27 -72 51 -75
55 -3 3 -39 30 -80 60 -41 29 -77 56 -80 59 -3 3 -27 24 -55 46 -27 21 -52 42
-55 45 -3 3 -21 17 -40 32 -19 14 -49 39 -67 54 -17 16 -57 52 -89 79 -158
138 -367 347 -491 490 -28 33 -63 74 -78 90 -14 17 -45 55 -68 85 -23 30 -47
61 -54 68 -6 7 -38 49 -70 95 -31 45 -61 84 -65 85 -4 2 -8 8 -8 13 0 6 -22
42 -48 82 -27 40 -59 91 -72 115 -13 23 -28 42 -34 42 -5 0 -7 3 -4 6 4 3 -8
31 -26 62 -17 31 -42 80 -56 107 -14 28 -29 53 -35 57 -5 4 -7 8 -2 8 4 0 0
11 -9 25 -9 14 -13 25 -9 25 3 0 -3 14 -15 30 -12 17 -19 30 -16 30 3 0 -6 24
-18 53 -21 46 -36 81 -41 97 -1 3 -5 12 -8 20 -8 19 -67 200 -72 220 -2 8 -4
15 -5 15 -1 0 -3 7 -5 15 -4 18 -24 98 -30 123 -8 28 -30 136 -39 187 -3 14
-5 25 -6 25 0 0 -3 20 -6 45 -3 25 -7 63 -10 85 -3 22 -6 52 -7 67 -1 14 -5
29 -9 33 -3 4 -5 -13 -3 -37z"/>
<path d="M5823 4390 c-3 -11 -9 -20 -13 -20 -5 0 -12 -9 -15 -20 -9 -29 -107
-194 -117 -198 -4 -2 -8 -8 -8 -14 0 -6 -11 -26 -25 -44 -14 -18 -25 -37 -25
-43 0 -6 -3 -11 -8 -11 -4 0 -18 -18 -32 -40 -14 -22 -28 -40 -32 -40 -5 0 -8
-6 -8 -13 0 -7 -13 -29 -30 -47 -28 -31 -37 -50 -25 -50 3 0 32 17 63 37 31
20 60 36 65 35 4 -1 7 2 7 8 0 5 5 10 11 10 6 0 24 11 41 25 16 14 37 25 45
25 9 0 13 3 10 7 -4 3 -1 13 5 21 7 8 13 19 14 26 2 17 44 169 51 186 3 8 6
18 5 21 -1 4 3 22 9 40 6 19 11 43 13 54 2 11 6 30 10 43 4 12 4 22 1 22 -4 0
-9 -9 -12 -20z"/>
<path d="M5530 4335 c0 -8 0 -17 0 -20 0 -16 14 -6 16 13 2 12 -1 22 -6 22 -6
0 -10 -7 -10 -15z"/>
<path d="M1050 4045 c0 -2 7 -21 16 -42 9 -21 22 -51 29 -68 25 -60 34 -82 79
-178 l46 -98 123 -58 c127 -60 157 -73 157 -67 0 2 -33 37 -72 78 -85 88 -177
188 -172 188 2 0 -7 10 -19 23 -12 12 -33 37 -47 55 -26 35 -48 62 -81 100
-10 12 -19 27 -19 32 0 6 -4 10 -10 10 -5 0 -10 7 -10 15 0 8 -4 15 -10 15 -5
0 -10 -2 -10 -5z"/>
<path d="M1109 3700 c17 -30 36 -62 41 -70 21 -34 86 -143 95 -161 5 -10 13
-19 17 -19 5 0 8 -7 8 -15 0 -8 4 -15 9 -15 5 0 11 -9 14 -20 5 -18 28 -32
112 -65 24 -10 17 -8 90 -29 33 -9 68 -21 77 -26 26 -14 42 -12 26 3 -7 7 -62
53 -123 102 -60 49 -172 151 -248 225 -76 74 -141 137 -144 140 -3 3 9 -20 26
-50z"/>
<path d="M5732 3696 c-17 -19 -33 -32 -36 -29 -3 4 -6 1 -6 -7 0 -11 -26 -37
-181 -180 -64 -59 -79 -72 -79 -66 0 2 -15 -10 -33 -27 -18 -18 -55 -51 -82
-74 -54 -45 -46 -48 43 -14 28 10 52 17 52 15 0 -2 11 3 24 11 13 9 28 15 32
13 25 -7 102 42 124 78 13 22 26 41 29 44 4 3 12 16 20 30 8 14 31 52 51 85
72 119 91 155 81 155 -5 0 -22 -15 -39 -34z"/>
<path d="M1173 3397 c9 -8 17 -18 17 -23 0 -5 14 -24 31 -41 16 -18 26 -33 22
-33 -4 0 -3 -4 3 -8 5 -4 35 -38 66 -77 90 -114 140 -163 173 -168 17 -3 39
-7 50 -10 11 -3 40 -10 65 -17 70 -17 75 -18 75 -20 0 -1 15 -3 33 -6 17 -2
32 1 32 6 0 6 -6 10 -13 10 -7 0 -23 9 -35 20 -12 11 -26 20 -31 20 -5 0 -16
6 -23 13 -7 7 -34 26 -60 41 -27 15 -48 32 -48 37 0 5 -6 9 -12 9 -7 0 -53 31
-102 68 -49 37 -96 72 -105 77 -9 6 -26 20 -38 33 -12 12 -26 22 -31 22 -5 0
-17 9 -28 21 -10 11 -28 25 -39 30 -18 9 -19 9 -2 -4z"/>
<path d="M5676 3385 c-3 -8 -12 -15 -20 -15 -7 0 -16 -7 -20 -15 -3 -8 -13
-15 -21 -15 -9 0 -13 -4 -10 -10 3 -5 -1 -10 -9 -10 -9 0 -16 -4 -16 -10 0 -5
-4 -10 -10 -10 -5 0 -19 -8 -29 -17 -11 -10 -26 -22 -33 -28 -89 -67 -129 -95
-137 -95 -6 0 -14 -6 -18 -13 -4 -7 -60 -45 -123 -85 -122 -77 -116 -83 44
-41 22 6 49 12 60 13 48 6 101 31 125 58 13 17 30 35 36 42 15 14 134 164 160
200 11 16 26 34 33 41 6 8 8 16 3 19 -5 3 -11 -1 -15 -9z"/>
<path d="M1299 3051 c11 -20 178 -191 282 -288 37 -34 54 -40 169 -50 113 -10
165 -9 168 2 1 6 -1 10 -5 11 -5 0 -28 10 -53 22 -25 12 -51 22 -57 22 -7 0
-13 4 -13 8 0 7 -43 27 -64 29 -5 1 -12 5 -15 10 -6 8 -59 38 -136 76 -22 11
-42 23 -45 26 -3 4 -20 13 -37 20 -18 8 -33 17 -33 22 0 5 -10 9 -22 9 -12 0
-18 3 -15 6 4 4 -15 18 -41 32 -26 14 -49 28 -52 31 -3 3 -14 13 -24 21 -18
14 -19 14 -7 -9z"/>
<path d="M5545 3042 c-17 -9 -32 -19 -35 -22 -9 -10 -105 -64 -105 -59 0 2
-11 -6 -25 -18 -13 -13 -29 -23 -36 -23 -7 0 -14 -3 -16 -7 -1 -5 -25 -19 -53
-33 -27 -13 -53 -28 -56 -33 -3 -5 -9 -8 -13 -8 -11 1 -256 -122 -256 -129 0
-8 106 -5 195 5 28 3 63 7 79 8 16 1 31 8 34 15 2 6 8 12 14 12 12 0 313 298
307 304 -2 3 -18 -3 -34 -12z"/>
<path d="M1460 2701 c83 -70 190 -151 198 -151 6 0 12 -3 14 -7 2 -5 26 -25
53 -45 28 -21 55 -42 61 -47 6 -5 23 -8 38 -7 15 2 28 1 30 -3 5 -8 264 -6
273 2 3 4 -3 7 -15 7 -11 0 -33 5 -49 12 -15 6 -31 11 -35 10 -5 -1 -8 2 -8 6
0 5 -6 9 -13 9 -11 0 -156 52 -202 73 -11 5 -42 18 -70 30 -27 11 -58 25 -67
30 -10 6 -25 10 -33 10 -8 0 -15 5 -15 10 0 6 -9 10 -20 10 -11 0 -20 5 -20
12 0 6 -3 9 -6 5 -4 -3 -25 3 -48 15 -22 11 -43 21 -46 20 -3 0 -14 4 -25 10
-14 7 -13 4 5 -11z"/>
<path d="M5395 2708 c-11 -6 -23 -16 -27 -22 -4 -6 -8 -7 -8 -3 0 4 -10 2 -22
-5 -13 -7 -25 -13 -28 -13 -3 0 -15 -6 -27 -13 -13 -7 -23 -9 -23 -5 0 4 -4 3
-8 -2 -4 -6 -54 -30 -112 -54 -58 -24 -118 -49 -135 -56 -16 -7 -78 -30 -137
-51 -60 -21 -108 -40 -108 -43 0 -8 262 -5 295 3 27 7 87 44 93 59 2 4 10 7
18 7 8 0 14 4 14 8 0 4 12 15 28 24 25 16 48 33 91 68 10 8 33 26 51 40 74 56
100 89 45 58z"/>
<path d="M1630 2401 c0 -12 162 -113 336 -207 34 -19 63 -32 65 -30 2 2 49 7
104 11 100 7 142 11 180 14 19 2 19 3 -1 11 -12 4 -36 11 -55 14 -19 3 -50 10
-69 16 -19 6 -48 14 -65 17 -16 3 -32 8 -35 11 -3 4 -16 8 -30 10 -14 2 -34 7
-45 11 -19 8 -158 51 -179 56 -6 1 -18 5 -26 8 -37 14 -136 48 -145 50 -5 2
-16 6 -22 10 -7 5 -13 4 -13 -2z"/>
<path d="M5238 2404 c-4 -3 -14 -7 -25 -9 -10 -2 -19 -4 -20 -5 -2 -2 -6 -3
-10 -5 -5 -1 -21 -7 -38 -14 -16 -7 -34 -14 -40 -15 -11 -2 -163 -50 -230 -71
-41 -13 -113 -33 -150 -42 -38 -8 -50 -11 -50 -13 0 -2 -43 -12 -104 -25 -28
-5 -40 -15 -20 -16 8 0 28 -2 44 -3 17 -2 84 -6 150 -11 l121 -7 54 32 c30 18
64 36 75 41 11 5 40 23 65 39 25 17 57 36 73 42 15 7 27 16 27 20 0 4 7 8 15
8 8 0 15 4 15 9 0 5 14 14 30 21 17 7 30 16 30 21 0 10 -4 11 -12 3z"/>
<path d="M5033 2105 c-18 -8 -33 -12 -33 -10 0 3 -11 0 -26 -5 -14 -6 -39 -12
-57 -15 -18 -3 -57 -12 -88 -20 -31 -8 -73 -17 -95 -21 -66 -10 -79 -12 -79
-14 0 -1 -11 -4 -25 -6 -27 -4 -62 -11 -70 -14 -3 -1 -8 -2 -12 -1 -4 0 -42
-6 -85 -14 -43 -8 -93 -16 -110 -17 -39 -3 -31 -15 15 -22 17 -4 45 -8 60 -11
16 -3 44 -7 63 -9 19 -3 45 -8 59 -11 77 -17 103 -9 395 131 108 51 177 98 88
59z"/>
<path d="M1810 2106 c0 -6 186 -96 295 -142 44 -19 93 -41 110 -49 16 -7 32
-12 35 -10 3 2 28 6 55 9 28 3 59 7 70 10 18 3 92 17 120 21 6 1 20 3 33 3 23
2 32 19 10 19 -25 0 -180 25 -248 39 -14 3 -33 6 -42 6 -10 -1 -18 2 -18 6 0
4 -15 7 -33 8 -35 1 -82 10 -95 18 -4 2 -26 7 -47 10 -22 3 -55 9 -73 15 -18
5 -35 10 -37 10 -3 1 -6 1 -7 2 -9 2 -46 10 -63 13 -11 1 -30 6 -42 10 -13 4
-23 5 -23 2z"/>
<path d="M2070 1791 c0 -6 5 -12 10 -12 11 -2 25 -5 38 -9 4 -1 10 -2 15 -1 4
0 7 -3 7 -9 0 -5 5 -10 12 -10 9 0 127 -40 198 -67 8 -3 21 -8 28 -10 6 -1 18
-5 25 -6 6 -2 26 -10 42 -16 38 -16 105 -21 128 -9 10 5 27 11 38 14 22 5 60
14 74 18 6 2 24 6 40 10 17 4 37 10 45 13 8 4 21 5 28 4 6 -1 12 6 11 16 0 11
-3 13 -6 5 -2 -6 -10 -9 -16 -5 -6 3 -36 8 -66 9 -31 1 -92 5 -136 8 -73 5
-110 8 -215 21 -19 2 -60 7 -90 10 -30 3 -66 8 -80 11 -14 3 -39 6 -56 8 -17
2 -41 7 -53 11 -12 4 -21 2 -21 -4z"/>
<path d="M4776 1793 c-3 -4 -19 -7 -34 -8 -15 -1 -45 -5 -67 -8 -61 -10 -149
-21 -260 -32 -37 -4 -159 -14 -245 -20 -19 -1 -37 -4 -40 -5 -3 -1 -9 -1 -15
0 -32 7 -56 6 -61 -1 -3 -5 2 -9 11 -9 8 0 23 -4 33 -10 29 -16 225 -63 262
-63 19 1 89 20 155 43 66 23 126 43 133 43 6 0 12 4 12 9 0 5 4 7 9 3 5 -3 12
-2 15 3 2 4 28 14 55 22 29 8 51 19 51 27 0 15 -3 16 -14 6z"/>
<path d="M2295 1540 c-19 -8 -19 -9 3 -9 12 -1 30 -5 40 -10 15 -9 117 -37
161 -46 10 -2 35 -8 57 -14 21 -5 53 -13 69 -17 17 -4 35 -8 40 -10 9 -2 44
-10 85 -18 8 -2 20 0 25 4 6 4 46 19 90 33 91 30 182 65 175 68 -3 0 -124 2
-270 4 -269 3 -413 9 -440 19 -8 2 -24 1 -35 -4z"/>
<path d="M4568 1545 c-9 -9 -256 -18 -505 -19 -128 0 -233 -3 -233 -7 0 -3 19
-11 43 -18 23 -7 54 -20 70 -28 15 -8 27 -12 27 -10 0 3 33 -7 73 -22 56 -21
80 -25 107 -19 19 4 47 10 61 13 14 2 103 25 197 50 95 25 174 45 177 45 3 0
5 5 5 10 0 11 -13 13 -22 5z"/>
</g>
</svg>
